<?xml version="1.0" encoding="utf-8"?>
<!-- Generator: Adobe Illustrator 19.1.0, SVG Export Plug-In . SVG Version: 6.00 Build 0)  -->
<svg version="1.1" id="レイヤー_1" xmlns="http://www.w3.org/2000/svg" xmlns:xlink="http://www.w3.org/1999/xlink" x="0px"
	 y="0px" viewBox="0 0 234 180" style="enable-background:new 0 0 234 180;" xml:space="preserve">
<style type="text/css">
	.st0{fill:#C9BC9C;}
</style>
<g>
	<g>
		<path class="st0" d="M70.9,8.1c-0.1,1-0.7,1.5-2,1.5c-8.4,0-17.2,0.4-26.2,1.1c-0.4,2.3-1.3,8.4-2.5,18.4
			c-0.8,6.3-1.5,11.9-1.9,16.9c-0.5,4.9-0.8,9.3-1,13c-0.1,2.5,0.1,5.5,0.7,9c-0.3-0.1-0.7-0.2-1.1-0.3c-0.4-0.2-0.9-0.4-1.4-0.6
			c-1.3-1.4-1.9-3.8-1.9-7.2c0-5,0.5-12.5,1.4-22.4c0.5-5,0.9-9.4,1.1-13c0.2-3.7,0.4-6.8,0.4-9.3c0-0.7,0-1.3,0-1.9
			c0-0.6-0.1-1.1-0.1-1.6c-1.7-0.2-4.9-0.1-9.7,0.3c-14.1,1.1-21.1,2.9-21.1,5.6c0,2,2.8,3,8.4,3c6.3,0,12.2-0.8,17.7-2.5
			c-1.1,1.9-2.4,3-3.9,3.4c-5.9,1.4-10.9,2.2-14.9,2.2c-3.2,0-5.6-0.4-7.1-1.3c-1.9-1.2-2.9-3.3-2.9-6.2c0-2.8,1.6-4.6,4.8-5.4
			l11.6-1.5c2.7-0.3,6.3-0.6,10.8-0.9c4.5-0.3,10-0.6,16.5-0.9c5.2-0.2,9.6-0.4,13.2-0.5s6.5-0.1,8.6-0.1
			C70.1,6.6,70.9,7.1,70.9,8.1z"/>
		<path class="st0" d="M65.8,66.5c-2.3,0-4.2-2.3-5.7-6.8c-1.6,5.8-3.7,8.7-6.3,8.7c-3.7,0-5.4-4.6-5.3-13.7
			c0.1-2.4,0.9-6.5,2.3-12.2c1.8-6.5,3.3-9.8,4.6-9.8c2.8,0,4.5,0.7,5.3,2.2l1.7,3.4l3.3,1.1c-1.6,4.6-2.6,10.2-3.2,16.8
			c-0.1,1.4,0,2.9,0.4,4.5c0.5,2.2,1.3,3.3,2.3,3.3c2.1,0,5-7.7,8.7-23.1c0.4-1.4,0.8-2.2,1.3-2.2s0.8,0.5,0.8,1.4
			c0,2.3-1.2,7-3.5,14.2C69.9,62.4,67.7,66.5,65.8,66.5z M60.1,40.2c-0.3-2.9-1-4.3-2.3-4.3c-1.1,0-2,1.5-2.8,4.5
			c-0.3,0.7-0.5,1.6-0.8,2.7c-0.3,1.1-0.7,2.4-1.1,3.8c-1,3.8-1.5,8.5-1.5,14.2c0,1.1,0.2,2.1,0.7,3c0.6,1.2,1.3,1.8,2.2,1.8
			c1.2-0.7,2.4-3.1,3.8-7.2c0.5-1.6,0.9-3.1,1.3-4.6c0.4-1.4,0.6-2.7,0.8-3.8l1.1-8.6L60.1,40.2z"/>
		<path class="st0" d="M89.5,42.6c0,4.6-0.6,9.5-1.8,14.8c-1.6,7.6-3.8,11.4-6.6,11.4c-1.6,0-2.9-1.4-4.1-4.2h-0.8
			c-0.3,0.9-0.8,1.4-1.3,1.4c-0.6,0-1.1-0.4-1.5-1.1c-0.4-0.7-0.7-1.4-0.7-2c0-0.2,0.1-0.6,0.2-0.9c-0.1-4.8,0.1-9.8,0.4-15
			c0.3-5.3,0.8-10.8,1.5-16.7c0.3-2.3,0.7-5.1,1.1-8.4c0.4-3.4,0.9-7.3,1.5-11.9c0.2-2.1,0.3-3.4,0.1-4c0.4-0.7,1.2-1,2.4-0.8
			c1.5,0,2.3,0.8,2.3,2.3c0,0.6-0.2,1.7-0.7,3.3c-0.3,0.9-0.5,1.9-0.7,2.8c-0.2,0.9-0.4,1.8-0.5,2.7C79,24,77.9,30.6,77.2,35.8
			c-0.7,5.2-1,9.2-1,12.1c0.6-1.5,1.3-3.5,1.9-6c1.3-5.1,3.2-7.6,5.6-7.6C87.6,34.2,89.5,37,89.5,42.6z M86.5,44.4
			c0-5.2-0.7-7.8-2.2-7.8c-1.8,0-3.6,3.6-5.4,10.9c-1.7,6.3-2.5,10.9-2.5,13.7c0.6,0.5,1.3,1.5,2.3,3.1c0.6,0.9,1.3,1.4,2.1,1.4
			c1.5,0,2.8-1.9,3.8-5.7C85.8,55.2,86.5,50,86.5,44.4z"/>
		<path class="st0" d="M105.9,67.8c-3.3,0-5.8-2.3-7.6-6.9c-1.3-3.4-2-7.2-2-11.2c0-5.5,0.6-12.4,1.7-20.6
			c1.2-8.6,2.6-15.4,4.2-20.2c0.3-4.3,1.4-6.4,3.2-6.4c4.1,0,6.2,3.1,6.2,9.4c0,5.1-1,11.2-3,18.3c-2.1,7.3-4.5,13-7.3,17
			c-0.1,0.1-0.2,0.3-0.4,0.7c-0.2,0.3-0.5,0.7-0.9,1.2c-0.5,0.7-0.8,1.4-0.8,2.1c0,4.4,1,7.9,3,10.7c1.4,1.9,2.7,2.8,3.8,2.8
			c2.3,0,5.3-6.2,8.8-18.6c0.1-0.6,0.3-1.4,0.5-2.3c0.2-0.9,0.5-1.9,0.8-3.1c0.2-1.3,0.7-2,1.2-2c0.6,0,0.8,0.5,0.8,1.4
			c0,2.4-1.3,7.3-3.8,14.6C111.6,63.5,108.7,67.8,105.9,67.8z M107.2,6c-5.2,17.1-7.8,30-7.8,38.8c2.4-3.7,4.5-8.9,6.5-15.7
			c1.9-6.3,2.8-11.1,2.8-14.5C108.7,9.8,108.2,7,107.2,6z"/>
		<path class="st0" d="M136.1,39.9c0,0.4-0.5,2.5-1.4,6.3c-2.4,9.4-4.7,15.7-7,18.9c-1.4,1.8-3.1,2.7-5,2.7c-2.6,0-4.8-1.5-6.4-4.4
			c-1.3-2.5-1.9-5.2-1.9-8c0-1.9,0.1-4,0.3-6.1c0.2-2.1,0.5-4.4,0.9-6.8c1.2-6.8,2.9-10.2,5.2-10.2c1.3,0,2.5,0.5,3.7,1.4
			c1.1,0.9,1.7,2.1,1.7,3.4c0,4.6-1.3,9.8-4,15.6c-1.1,2.4-2.4,4.8-3.9,7.2c0,1.1,0.5,2.3,1.6,3.7c1,1.3,2.1,2,3.2,2
			c3,0,6.4-7.1,10.1-21.4c0.9-3.6,1.5-5.3,1.8-5.3C135.7,38.7,136.1,39.1,136.1,39.9z M123.6,38.1c0-2.1-0.4-3.2-1.3-3.2
			c-0.5,0-0.9,0.4-1.1,1.2c-2.3,6.9-3.5,13.7-3.5,20.3c1.4-0.9,2.8-3.7,4.1-8.4C123,43.8,123.6,40.5,123.6,38.1z"/>
	</g>
	<g>
		<g>
			<path class="st0" d="M153.3,63.3c-1.7,0.3-2.9,0.5-3.8,0.5c-0.9,0-1.8,0-2.8,0c-1,0-2,0-3-0.1l-3.2-0.1
				c-1.1,7.4-1.6,12.8-1.6,16.3c0,2,0,3.6,0,4.8c0,1.2,0.1,2.1,0.1,2.6c0.2,2.7,0.8,4,1.8,4c1.7,0,3.7-4.6,5.8-13.7
				c0.4-2,0.8-3,1.1-3c0.4,0,0.7,0.3,0.7,1c0,1.5-0.8,4.6-2.3,9.3c-1.9,5.8-3.8,8.7-5.5,8.7c-1.5,0-2.6-1.5-3.4-4.5
				c-0.5-2.1-0.7-4.1-0.7-6.1c0-1,0.1-3.1,0.4-6.3c0.3-3.2,0.7-7.5,1.3-12.9c-0.7-0.1-3-0.2-6.7-0.2l-1.5,0.5
				c-0.3-0.4-0.8-0.7-1.4-0.9c-0.5-0.2-0.7-0.5-0.7-0.7c0-0.3,0.3-0.5,0.8-0.5c0.8,0,2,0,3.6-0.1c1.6-0.1,3.6-0.1,6-0.2
				c0-0.5,0.1-1.1,0.1-1.9c0-0.8,0.1-1.8,0.2-2.9l-0.3-1.2c0.1-0.3,0.4-0.5,0.7-0.5c0.6,0,1.5,0.4,2.6,1.2v1.4
				c-0.1,0.6-0.2,1.2-0.3,1.8c-0.1,0.7-0.3,1.4-0.5,2.2c0.4,0,1,0,2.1,0c1,0,2.4,0.1,4.2,0.1c0.9,0,2.1,0.1,3.6,0.1
				c1.5,0,3.4,0.1,5.6,0.2v0.5C156.4,62.6,155.3,62.9,153.3,63.3z"/>
			<path class="st0" d="M164.8,75.2c0,1.9-0.6,4.2-1.7,6.9c-1,2.3-2.4,3.5-4,3.5c-0.2,0-1-0.3-2.3-0.8c-0.1,0.5-0.2,1-0.3,1.7
				c-0.1,0.6-0.3,1.3-0.5,2c-0.4,1-0.7,1.9-1,2.6c-0.3,0.7-0.5,1.2-0.8,1.6c-0.9,1.4-2,2.1-3.2,2.1c-3.2,0-4.8-3.3-4.8-9.8
				c0-4.2,0.4-7,1.1-8.5c0,0.1,0,0.2,0,0.1c0-0.1,0-0.3-0.1-0.6c0-0.3-0.1-0.5-0.1-0.7c0-0.2,0-0.4,0-0.5c0-0.4,0.2-0.7,0.4-0.9
				c0.1-0.2,0.2-0.5,0.3-1c0.1-0.4,0.2-1,0.4-1.8c0.3-1.5,1.1-2.2,2.2-2.2c1.1,0,2.3,0.5,3.6,1.5c1.3,1,2.1,2,2.4,3
				c0.4,1.1,0.5,4.3,0.5,9.6c0.6,0.5,1.2,0.7,1.7,0.7c1.5,0,2.7-0.9,3.4-2.6c0.4-0.7,0.8-2.4,1.4-5.2c0.2-0.8,0.4-1.2,0.8-1.2
				C164.6,74.6,164.8,74.8,164.8,75.2z M154.9,84.9c0-0.5,0-1.1-0.1-1.8c-0.1-0.7-0.2-1.5-0.4-2.4c-0.2-0.9-0.3-1.7-0.4-2.4
				c-0.1-0.7-0.1-1.3-0.1-1.8c0-0.3,0-0.8,0.1-1.5c0.1-0.7,0.1-1.1,0.1-1.5c0-1.5-0.7-2.3-2.1-2.3c-0.9,0-1.7,2.1-2.4,6.2
				c-0.7,3.6-1,6.3-1,8.1c0,4.8,1,7.1,2.9,7.1c0.5,0,1.1-0.9,1.9-2.6C154.3,87.9,154.9,86.1,154.9,84.9z"/>
		</g>
		<g>
			<path class="st0" d="M85.8,80.5c0-1.4-0.1-2-0.2-1.8c-0.1,0.3-0.3,1.3-0.6,3.2c-0.5,3.4-1,7.9-1.4,13.5c-0.3,3-0.4,5.5-0.6,7.5
				c-0.1,2-0.2,3.6-0.2,4.8c0,0.9,0,2,0,3.4c0,1.3,0,2.9,0.1,4.7c0.1,1.8,0.1,3.4,0.1,4.7c0,1.3,0,2.5,0,3.3c0,4.7-0.3,8-0.8,9.9
				c-1.1,3.9-3.3,5.8-6.7,5.8c-3.2,0-7.7-1.4-13.6-4.1c-6.3-3.1-9.6-6-9.8-8.7c-0.1-1.3,0.6-2,2.2-2c0.9,0,2.2,0.9,4,2.8
				c2.9,3.2,4.6,5,5.2,5.3c2.3,1.9,4.7,2.8,7,2.8c3.6,0,6.1-2.1,7.3-6.2c0.9-3,1.3-7.9,1.3-14.7c0-2.8,0-5.6,0-8.6
				c0-3-0.1-6.1-0.1-9.4l-0.2-13c0-0.4-0.2-1.1-0.5-1.9S78,80.5,78,80.1c0-1.5,0.9-2.3,2.6-2.3C84.1,77.8,85.8,78.7,85.8,80.5z"/>
			<path class="st0" d="M115.6,112.7c0,2.8-0.8,6-2.4,9.8c-1.4,3.3-3.3,5-5.7,5c-0.3,0-1.4-0.4-3.3-1.1c-0.1,0.7-0.3,1.5-0.5,2.3
				c-0.2,0.9-0.4,1.8-0.7,2.9c-0.5,1.4-1,2.7-1.4,3.7c-0.4,1-0.8,1.8-1.1,2.3c-1.3,2-2.8,3-4.6,3c-4.6,0-6.8-4.7-6.8-14
				c0-5.9,0.5-9.9,1.5-12c0,0.2,0,0.3,0,0.2c0-0.1,0-0.4-0.1-0.8c-0.1-0.4-0.1-0.8-0.1-1c0-0.3,0-0.5,0-0.7c0.1-0.6,0.2-1,0.6-1.3
				c0.1-0.3,0.2-0.8,0.4-1.4c0.1-0.6,0.3-1.5,0.6-2.5c0.4-2.1,1.5-3.2,3.2-3.2c1.6,0,3.3,0.7,5.1,2.1c1.8,1.4,3,2.8,3.5,4.2
				c0.5,1.5,0.8,6,0.8,13.6c0.9,0.7,1.7,1,2.3,1c2.2,0,3.8-1.2,4.9-3.7c0.5-0.9,1.2-3.4,2-7.4c0.2-1.1,0.6-1.7,1.1-1.7
				C115.3,111.8,115.6,112.1,115.6,112.7z M101.4,126.5c0-0.7-0.1-1.5-0.2-2.5c-0.1-1-0.3-2.2-0.6-3.5c-0.2-1.3-0.4-2.5-0.6-3.4
				c-0.1-1-0.2-1.8-0.2-2.5c0-0.4,0-1.1,0.1-2.1c0.1-0.9,0.1-1.6,0.1-2.1c0-2.2-1-3.3-3-3.3c-1.3,0-2.5,2.9-3.5,8.8
				c-0.9,5.1-1.4,8.9-1.4,11.5c0,6.8,1.4,10.1,4.1,10.1c0.7,0,1.6-1.3,2.7-3.8C100.7,130.7,101.4,128.2,101.4,126.5z"/>
			<path class="st0" d="M130.5,138.5c-1.4,0-2.6-1-3.6-3.1c-0.3-0.4-0.8-2-1.7-4.9c-0.4,1.1-0.9,2.2-1.4,3.3c-0.5,1.2-1,2.4-1.5,3.6
				c-1.1,1.9-2.6,2.9-4.4,2.9c-1.6,0-2.9-0.9-3.8-2.8c-0.8-1.6-1.1-3.3-1.1-5.1c0-1.3,0-2.9,0.1-4.8c0.1-1.9,0.2-4.1,0.3-6.7
				c0.2-6.4,0.6-9.9,1-10.6c0.3-0.5,0.8-0.8,1.6-0.8c0.6,0,1.2,0.3,1.7,0.8c0.5,0.5,0.8,1.1,0.8,1.7s-0.1,1.3-0.4,2.2
				c-0.1,0.6-0.2,1.1-0.3,1.5c-0.1,0.3-0.2,0.6-0.2,0.7c-0.4,2.4-0.8,5.1-1,8c-0.2,2.9-0.3,6.1-0.3,9.4c0,2.8,0.6,4.1,1.8,4.1
				c0.9,0,1.8-0.8,2.6-2.3c0.3-0.6,0.6-1.2,0.8-1.8c0.2-0.6,0.5-1.2,0.8-1.8c1.4-3.3,2.4-7.3,3.1-12.2c0.1-0.1,0.1-0.5,0.2-1.2
				c0.1-0.7,0.2-1.6,0.4-2.8c0.1-0.9,0.2-1.6,0.3-2.3c0.1-0.7,0.1-1.2,0.1-1.7c0-1.4,0-2.4,0-3c0-0.6,0-0.8-0.1-0.6
				c0.2-1.6,0.8-2.4,1.9-2.3c1.8,0,2.7,0.5,2.7,1.5c0,0.3-0.2,0.8-0.5,1.5c-0.3,0.7-0.5,1.4-0.6,1.9c0,0.3-0.1,1-0.2,2.1
				c-0.2,1.2-0.4,2.8-0.7,4.9c-0.3,1.8-0.4,3.3-0.6,4.8c-0.1,1.4-0.2,2.7-0.2,3.8c0,5.9,0.9,8.9,2.7,8.9c1.7,0,3.5-3.3,5.4-9.9
				c0.8-2.7,1.9-6.8,3.4-12.4c0.2-0.9,0.6-1.4,1.1-1.4c0.5,0,0.8,0.4,0.8,1.1c0,2.2-1.1,6.6-3.2,13.1
				C135.7,134.4,133.1,138.5,130.5,138.5z"/>
			<path class="st0" d="M152.3,139.8c-1.9,0-3.6-1.1-4.9-3.3c-0.6-0.9-0.9-2.8-0.9-5.7c-0.1-2.1-0.1-5,0-8.7l0.2-7.5
				c0-1.5-1.5-3-4.6-4.6c0,1.6-0.8,4.9-2.3,10c0,0.1-0.2,0.4-0.5,1c-0.3,0.6-0.5,0.9-0.5,1l-1.2-0.4c0-1,0.4-3,1.1-5.9
				c0.8-2.8,1.2-5,1.2-6.7c0-0.6-0.3-1.7-0.8-3.2c-0.5-1.5-0.8-2.6-0.8-3.3c0-3.1,0.8-4.7,2.3-4.7c1.3,0,1.9,1,2,2.9
				c0.1,0.4,0.1,0.8,0,1.3c0,0.5-0.1,1-0.1,1.6c-0.1,0.8-0.1,1.4-0.1,1.9c0,0.5,0,0.9,0,1.1c0,0.6,1.3,1.6,3.9,3c2.7,1.4,4,3,4,4.8
				c0,1.1-0.1,2.4-0.2,3.9c-0.1,1.5-0.3,3.3-0.6,5.4c-0.2,2-0.4,3.8-0.6,5.3c-0.1,1.5-0.2,2.8-0.2,3.9c0,2.9,0.9,4.4,2.7,4.4
				c1.1,0,2.7-3.3,5-9.9c2.1-6.1,3.4-10.6,3.8-13.5c0.2-1.4,0.6-2.2,1.3-2.2c0.5,0,0.8,0.5,0.8,1.4c0,2.1-1.2,6.9-3.7,14.3
				C156.1,135.7,153.9,139.8,152.3,139.8z"/>
			<path class="st0" d="M189,113.2c0,1.8-1.1,6-3.3,12.8c-3,9.1-5.4,13.6-7.2,13.6c-2.3,0-3.9-2.2-4.8-6.7c-0.2-1.2-0.5-3.2-0.7-5.9
				c-0.2-2.7-0.4-6.1-0.6-10.3c-0.3,1.1-0.9,3.2-1.7,6.2c-0.8,3-1.9,7.1-3.1,12.1c-0.6,2.7-1.6,4-2.9,4c-1.9,0-3.1-1.3-3.6-3.9
				l-0.4-7c-0.2-2.8-0.2-5.3,0-7.5l0.3-3.5l-0.8-1.8c0.1-1.7,0.2-2.8,0.5-3.4c0.4-1,1.2-1.5,2.3-1.5c1.3,0,1.9,0.6,1.9,1.7
				c0,0.4-0.2,1.2-0.7,2.4c-0.4,1.3-0.6,2.3-0.6,3c0,0.6,0,1.3,0,2.2c0,0.8,0,1.8-0.1,2.9c-0.1,1.1-0.1,2.1-0.1,3c0,0.8,0,1.5,0,2.1
				c0,4.5,0.5,6.8,1.5,6.8c0.3,0,0.7-0.8,1.2-2.4c0.9-3.6,1.5-6,2-7.1c0.9-2.8,1.6-5.4,2.2-7.8c0.6-2.4,0.9-4.6,1-6.8
				c0.2-2.6,0.6-4.2,1.3-4.7c3.2,0.2,4.8,1.2,4.8,3c0-1.4-0.1-1.6-0.3-0.8c-0.2,0.9-0.4,2.9-0.8,6.1c-0.3,3.1-0.5,5.7-0.7,7.6
				c-0.2,2-0.2,3.4-0.2,4.3c0,6.8,0.9,10.1,2.6,10.1c1.5,0,3.3-3.3,5.4-9.9c0.6-1.9,1.2-3.9,1.7-5.8c0.5-1.9,1-3.8,1.5-5.8
				c0.4-1.9,0.9-2.9,1.5-2.9C188.8,111.8,189,112.3,189,113.2z"/>
			<path class="st0" d="M206.9,112.9c0,0.4-0.5,2.5-1.4,6.3c-2.4,9.4-4.7,15.7-7,18.9c-1.4,1.8-3.1,2.7-5,2.7
				c-2.6,0-4.8-1.5-6.4-4.4c-1.3-2.5-1.9-5.2-1.9-8c0-1.9,0.1-4,0.3-6.1c0.2-2.1,0.5-4.4,0.9-6.8c1.2-6.8,2.9-10.2,5.2-10.2
				c1.3,0,2.5,0.5,3.7,1.4c1.1,0.9,1.7,2.1,1.7,3.4c0,4.6-1.3,9.8-4,15.6c-1.1,2.4-2.4,4.8-3.9,7.2c0,1.1,0.5,2.3,1.6,3.7
				c1,1.3,2.1,2,3.2,2c3,0,6.4-7.1,10.1-21.4c0.9-3.6,1.5-5.3,1.8-5.3C206.5,111.8,206.9,112.2,206.9,112.9z M194.4,111.2
				c0-2.1-0.4-3.2-1.3-3.2c-0.5,0-0.9,0.4-1.1,1.2c-2.3,6.9-3.5,13.7-3.5,20.3c1.4-0.9,2.8-3.7,4.1-8.4
				C193.8,116.9,194.4,113.6,194.4,111.2z"/>
			<path class="st0" d="M196.2,137.3c1.1,0,2.7-3.2,4.8-9.5c0.7-2,1.3-4.2,2-6.5c0.6-2.3,1.3-4.8,1.9-7.4c0.4-1.4,0.8-2.2,1.3-2.2
				c0.5,0,0.8,0.5,0.8,1.4c0,1.9-1.2,6.7-3.7,14.3c-2.8,8.2-4.9,12.3-6.5,12.3c-1.4,0-2.2-0.3-2.2-0.8c0-0.5,0.2-0.9,0.6-1.1
				C195.5,137.6,195.9,137.5,196.2,137.3z M231,148.1c-1.4-0.3-2.6-0.4-3.5-0.5c-0.9-0.1-1.6-0.1-2-0.1c-1,0-2.9,0.5-5.7,1.4
				c0,0.4,0,0.9,0,1.5c0,0.7,0.1,1.3,0.1,2c0,0.7,0.1,1.4,0.1,2c0,0.7,0,1.2,0,1.5c0,14.3-4.6,21.5-13.8,21.5
				c-1.5,0-2.9-0.3-4.2-0.8c-1.3-0.6-2.4-1.3-3.3-2.3s-1.7-2.1-2.2-3.4c-0.5-1.3-0.8-2.7-0.8-4.2c0-4.6,2.8-8.9,8.4-12.9
				c4.4-3.1,8.7-5.1,12.8-6c0-6.7-0.5-11.9-1.4-15.7c-0.3,0.6-0.6,1.4-1,2.3c-0.4,0.9-0.9,1.9-1.5,3.1c-1.1,2-2.3,3-3.8,3
				c-2,0-3.5-1-4.5-3.1c-0.8-1.6-1.2-3.5-1.2-5.7c0-3.1,0.3-7.5,0.8-13.3c0.1-0.9,0.1-1.8,0.2-2.7c0.1-0.9,0.1-1.9,0.2-2.8
				c0.4-2.8,1.3-4.2,2.4-4.2c1.1,0,1.5,0.4,1.4,1.3l-1,9.6c-0.3,2.5-0.4,4.7-0.6,6.6s-0.2,3.5-0.2,4.8c0,5.1,0.8,7.6,2.4,7.6
				s3.7-4.7,6.1-14.1c0.2-1.6,0.5-3.8,0.8-6.6s0.8-6.3,1.3-10.5c0.2-1.6,1-2.4,2.5-2.4c1-0.1,1.5,0.3,1.5,1.2c0,1.4-0.7,4.5-2,9.2
				c-0.3,1.2-0.5,3.3-0.7,6.5c-0.1,3.1-0.2,7.3-0.1,12.6c0,1.8,0.1,4.6,0.3,8.4l0.2,4.1c0.3-0.1,0.8-0.2,1.4-0.3
				c0.6-0.2,1.4-0.4,2.3-0.6c2-0.5,3.4-0.8,4.2-0.8c2.8,0,4.1,0.7,4.1,2.2C231.3,147.6,231.2,147.9,231,148.1z M217.2,149.8
				c-5.5,1.5-10.1,4.1-13.8,7.8c-3.3,3.2-4.9,6.5-4.9,10c0,1,0.2,2,0.5,2.9c0.3,0.9,0.8,1.8,1.5,2.5c0.6,0.8,1.4,1.3,2.2,1.8
				c0.8,0.4,1.7,0.7,2.7,0.7c4.1,0,7.2-2.3,9.3-6.8c1.7-3.6,2.5-7.7,2.5-12.1V149.8z"/>
		</g>
	</g>
</g>
</svg>
